<svg width="10" height="9" viewBox="0 0 10 9" fill="none" xmlns="http://www.w3.org/2000/svg">
<path d="M9.63232 3.16916L6.65309 2.75855L5.32129 0.198076C5.28492 0.127972 5.22508 0.071221 5.15115 0.0367253C4.96576 -0.0500703 4.74047 0.0222594 4.64777 0.198076L3.31597 2.75855L0.336743 3.16916C0.254606 3.18028 0.179509 3.21701 0.122013 3.27264C0.0525035 3.3404 0.0142006 3.43155 0.0155207 3.52607C0.0168408 3.62059 0.0576759 3.71074 0.129053 3.77673L2.28457 5.76969L1.77532 8.58387C1.76337 8.64933 1.77101 8.71666 1.79737 8.77821C1.82372 8.83977 1.86773 8.89309 1.92442 8.93213C1.9811 8.97118 2.04818 8.99437 2.11806 8.9991C2.18794 9.00383 2.25782 8.98989 2.31977 8.95887L4.98453 7.63023L7.64929 8.95887C7.72204 8.99559 7.80653 9.00783 7.88749 8.99448C8.09166 8.96109 8.22895 8.77749 8.19375 8.58387L7.6845 5.76969L9.84001 3.77673C9.89868 3.7222 9.9374 3.65098 9.94913 3.57309C9.98082 3.37836 9.83766 3.19809 9.63232 3.16916Z" fill="#FFB932"/>
</svg>
